<?xml version="1.0" standalone="no"?><!DOCTYPE svg PUBLIC "-//W3C//DTD SVG 20010904//EN" "http://www.w3.org/TR/2001/REC-SVG-20010904/DTD/svg10.dtd"><svg xmlns="http://www.w3.org/2000/svg" version="1.0" width="1358.000000pt" height="192.000000pt" viewBox="0 0 1358.000000 192.000000" preserveAspectRatio="xMidYMid meet">

<g transform="translate(0.000000,192.000000) scale(0.100000,-0.100000)" fill="#00494d" stroke="none">
<path d="M12280 1897 c-57 -30 -94 -94 -87 -151 3 -21 9 -42 14 -45 12 -9 93 -119 93 -127 0 -4 14 -20 30 -36 23 -22 30 -36 28 -61 -3 -46 7 -57 52 -57 34 0 41 4 46 26 4 14 2 36 -4 49 -10 21 -8 26 15 37 37 18 162 195 162 231 1 35 -19 75 -56 108 -45 43 -67 49 -161 49 -73 0 -96 -4 -132 -23z m0 -186 c19 -39 50 -121 45 -121 -4 0 -105 150 -105 155 0 3 9 5 20 5 13 0 26 -14 40 -39z m76 -21 c6 -30 13 -77 17 -105 6 -45 3 -41 -29 45 -19 52 -35 97 -36 100 -2 15 4 21 20 18 12 -2 20 -19 28 -58z m70 13 c-3 -27 -8 -79 -12 -118 l-7 -70 -13 110 c-6 61 -10 113 -7 118 2 4 13 7 24 7 18 0 20 -5 15 -47z m84 27 c0 -11 -4 -20 -8 -20 -4 0 -8 -8 -9 -18 -1 -10 -13 -42 -27 -72 -14 -30 -23 -44 -21 -30 2 14 7 52 10 85 8 71 10 75 36 75 12 0 19 -7 19 -20z m80 10 c0 -8 -82 -133 -103 -155 -5 -5 -2 6 6 25 56 130 62 140 79 140 10 0 18 -4 18 -10z"/>
<path d="M704 1646 c-41 -18 -74 -62 -74 -98 0 -32 13 -55 78 -141 24 -31 42 -63 39 -70 -8 -24 13 -47 44 -47 35 0 46 21 30 56 -6 14 -8 23 -3 20 12 -7 23 4 80 82 63 88 67 116 18 169 -33 36 -37 38 -108 40 -47 2 -84 -2 -104 -11z m-14 -135 c5 -11 15 -32 20 -48 10 -27 9 -27 -6 -8 -26 33 -45 75 -35 75 6 0 15 -9 21 -19z m56 5 c3 -8 4 -27 2 -43 -3 -27 -4 -26 -20 15 -14 36 -14 42 -2 42 8 0 17 -6 20 -14z m53 -18 c0 -18 -4 -55 -9 -83 -7 -47 -7 -45 -9 33 0 49 3 82 9 82 6 0 10 -15 9 -32z m45 -15 c-18 -60 -29 -69 -21 -18 4 22 7 46 7 53 0 6 6 12 14 12 12 0 12 -7 0 -47z m67 30 c-6 -10 -19 -29 -31 -43 l-20 -25 17 43 c9 23 22 42 30 42 10 0 11 -4 4 -17z"/>
<path d="M1413 1358 c4 -29 4 -97 0 -150 l-6 -97 -76 -3 -76 -3 -1 -40 c-2 -121 -3 -125 -28 -125 -13 0 -27 -7 -30 -16 -3 -9 -6 -79 -7 -157 0 -107 -3 -135 -11 -114 -10 27 -10 27 -109 27 l-99 0 0 -60 0 -60 -40 0 c-52 0 -112 -25 -141 -58 -24 -27 -24 -28 -21 -239 2 -147 0 -213 -7 -213 -8 0 -11 96 -11 310 0 177 -4 310 -9 310 -5 0 -25 16 -44 35 -35 35 -36 35 -121 35 -80 0 -87 -2 -102 -25 -9 -14 -23 -25 -30 -25 -8 0 -14 -7 -14 -15 0 -9 -9 -15 -25 -15 l-25 0 -3 -308 -2 -307 -3 331 c-2 284 -4 333 -17 338 -8 3 -15 10 -15 16 0 6 -9 31 -20 56 l-20 44 -140 0 c-118 0 -140 -2 -140 -15 0 -8 -4 -15 -10 -15 -6 0 -10 -140 -10 -400 l0 -400 6790 0 6790 0 0 445 0 445 -83 0 -82 0 3 -151 c3 -104 1 -149 -7 -145 -19 12 -51 -17 -51 -46 l0 -27 -25 24 c-30 30 -54 31 -89 4 l-26 -20 0 210 0 211 -50 0 -49 0 -3 98 c-2 78 -6 97 -18 97 -10 0 -14 -9 -13 -25 1 -14 0 -58 -4 -97 l-5 -73 -43 0 -42 0 -7 -50 c-4 -32 -12 -50 -20 -50 -21 0 -26 -23 -26 -113 0 -63 -3 -78 -12 -69 -13 13 -85 16 -112 6 -10 -4 -16 -18 -16 -39 0 -30 -3 -33 -42 -39 -26 -4 -54 -18 -70 -33 l-28 -27 0 63 c0 57 -3 66 -27 87 -41 35 -131 34 -169 -1 -31 -29 -44 -32 -44 -10 0 8 -4 15 -8 15 -5 0 -16 18 -26 40 l-17 40 -91 0 c-80 0 -93 -2 -109 -22 -11 -11 -19 -27 -19 -35 0 -7 -4 -13 -9 -13 -15 0 -20 -60 -20 -243 0 -115 -4 -177 -11 -177 -5 0 -10 8 -10 18 0 10 -7 39 -16 65 l-16 47 -53 0 c-51 0 -54 -1 -60 -30 -4 -17 -11 -30 -16 -30 -16 0 -132 47 -234 95 -204 95 -375 137 -566 137 -196 0 -377 -44 -579 -139 -118 -56 -207 -93 -224 -93 -8 0 -17 13 -21 30 -6 29 -8 30 -64 30 -39 0 -58 -4 -58 -12 -1 -7 -7 -37 -14 -65 -10 -39 -18 -53 -31 -53 -11 0 -18 8 -18 20 0 14 -11 22 -39 30 -44 12 -81 51 -81 85 0 12 24 48 57 84 45 50 53 65 42 73 -22 15 -197 2 -260 -19 l-56 -19 28 61 c15 33 25 63 22 67 -13 23 -147 -3 -225 -43 -21 -11 -38 -17 -38 -15 0 3 18 47 40 97 45 105 48 119 21 119 -44 0 -183 -53 -243 -92 -71 -47 -186 -162 -214 -214 -15 -27 -22 -32 -39 -26 -26 9 -251 9 -261 -1 -4 -4 -3 -27 3 -52 l10 -45 -36 -5 c-20 -3 -60 -15 -89 -27 -48 -18 -55 -19 -85 -5 -79 36 -166 52 -237 42 -62 -8 -63 -18 -10 -94 l39 -59 -30 -12 c-16 -7 -36 -22 -44 -33 l-15 -21 -62 23 c-319 119 -603 186 -898 211 -336 29 -420 32 -724 27 -448 -7 -703 -34 -1041 -112 -153 -36 -175 -43 -327 -101 -48 -19 -90 -34 -93 -34 -3 0 -5 27 -5 60 l0 60 -35 0 -35 0 0 105 c0 100 -1 106 -22 115 -34 15 -62 33 -71 48 -5 8 -35 12 -88 12 -72 0 -81 -2 -86 -20 -3 -11 -10 -20 -15 -20 -6 0 -9 69 -7 178 l2 177 -174 3 -174 2 3 -209 4 -209 -26 5 c-18 4 -28 0 -32 -11 -3 -9 -12 -16 -20 -16 -10 0 -14 -13 -14 -42 -1 -37 -2 -40 -12 -23 -19 33 -41 44 -85 45 -34 0 -46 -5 -67 -31 l-26 -31 0 261 c0 177 -3 261 -11 261 -7 0 -8 16 -3 45 l6 45 -64 0 -65 0 -6 83 c-4 45 -7 106 -7 135 0 46 -2 52 -21 52 -20 0 -21 -4 -15 -42 4 -23 4 -84 0 -135 l-7 -93 -70 0 -70 0 7 -39 c3 -23 2 -42 -4 -46 -5 -3 -10 -19 -10 -36 0 -22 -5 -29 -19 -29 -27 0 -31 -18 -31 -158 -1 -91 -3 -122 -11 -110 -8 15 -25 18 -99 18 l-90 0 0 -53 0 -53 -35 4 c-42 5 -120 -30 -137 -61 -8 -15 -11 -80 -9 -204 2 -127 -1 -183 -8 -183 -8 0 -11 81 -11 266 l0 266 -37 39 -37 39 -87 0 c-84 0 -87 -1 -93 -25 -4 -16 -13 -25 -26 -25 -11 0 -20 -4 -20 -9 0 -5 -9 -11 -20 -14 -19 -5 -20 -15 -23 -274 l-2 -268 -3 297 c-1 210 -5 297 -13 300 -7 2 -19 24 -28 48 l-17 45 -132 3 c-113 2 -132 0 -132 -13 0 -8 -7 -15 -15 -15 -9 0 -18 -12 -21 -30 -4 -16 -10 -30 -15 -30 -5 0 -9 -16 -9 -35 0 -19 -4 -35 -10 -35 -6 0 -10 -95 -10 -265 0 -229 -2 -265 -15 -265 -13 0 -15 24 -15 155 l0 155 -45 0 -45 0 0 121 c0 100 -2 120 -14 116 -8 -3 -22 3 -32 14 -9 10 -23 19 -30 19 -7 0 -16 9 -19 20 -6 19 -14 21 -93 18 -82 -3 -87 -4 -90 -25 -2 -13 -10 -23 -19 -23 -13 0 -14 26 -11 195 l3 195 -190 0 -190 0 3 -225 4 -225 -31 0 c-24 0 -31 -4 -31 -20 0 -13 -7 -20 -20 -20 -16 0 -20 -7 -20 -31 l0 -31 -31 26 c-42 35 -96 35 -138 0 l-31 -26 0 276 c0 181 -4 277 -10 281 -7 4 -8 24 -4 51 l6 44 -74 0 -75 0 -6 83 c-4 45 -7 112 -7 150 0 62 -2 67 -21 67 -20 0 -21 -4 -16 -52z m104 -746 c-1 -59 -3 -10 -3 108 0 118 2 167 3 108 2 -60 2 -156 0 -216z m-200 26 c-1 -46 -3 -9 -3 82 0 91 2 128 3 83 2 -46 2 -120 0 -165z m850 170 c-3 -7 -5 -2 -5 12 0 14 2 19 5 13 2 -7 2 -19 0 -25z m40 0 c-3 -7 -5 -2 -5 12 0 14 2 19 5 13 2 -7 2 -19 0 -25z m1960 -265 c-1 -54 -3 -10 -3 97 0 107 2 151 3 98 2 -54 2 -142 0 -195z m-180 25 c-1 -40 -3 -8 -3 72 0 80 2 112 3 73 2 -40 2 -106 0 -145z m-1727 192 c0 -5 -4 -10 -10 -10 -5 0 -10 5 -10 10 0 6 5 10 10 10 6 0 10 -4 10 -10z m-2155 -10 c-3 -5 -19 -10 -36 -10 -16 0 -29 5 -29 10 0 6 16 10 36 10 21 0 33 -4 29 -10z m4472 -32 c-3 -7 -5 -2 -5 12 0 14 2 19 5 13 2 -7 2 -19 0 -25z m90 0 c-3 -7 -5 -2 -5 12 0 14 2 19 5 13 2 -7 2 -19 0 -25z m63 22 c0 -5 -2 -10 -4 -10 -3 0 -8 5 -11 10 -3 6 -1 10 4 10 6 0 11 -4 11 -10z m40 6 c0 -3 -4 -8 -10 -11 -5 -3 -10 -1 -10 4 0 6 5 11 10 11 6 0 10 -2 10 -4z m40 -6 c0 -5 -2 -10 -4 -10 -3 0 -8 5 -11 10 -3 6 -1 10 4 10 6 0 11 -4 11 -10z m36 -10 c0 -11 -4 -20 -8 -20 -4 0 -8 9 -8 20 0 11 4 20 8 20 4 0 8 -9 8 -20z m-4746 -20 c0 -5 -13 -10 -30 -10 -16 0 -30 5 -30 10 0 6 14 10 30 10 17 0 30 -4 30 -10z m12127 4 c-3 -3 -12 -4 -19 -1 -8 3 -5 6 6 6 11 1 17 -2 13 -5z m-9967 -24 c0 -5 -4 -10 -10 -10 -5 0 -10 5 -10 10 0 6 5 10 10 10 6 0 10 -4 10 -10z m620 -20 c0 -5 -13 -10 -30 -10 -16 0 -30 5 -30 10 0 6 14 10 30 10 17 0 30 -4 30 -10z m-2712 -7 c-10 -2 -26 -2 -35 0 -10 3 -2 5 17 5 19 0 27 -2 18 -5z m62 -3 c0 -5 -4 -10 -10 -10 -5 0 -10 5 -10 10 0 6 5 10 10 10 6 0 10 -4 10 -10z m50 0 c0 -5 -4 -10 -10 -10 -5 0 -10 5 -10 10 0 6 5 10 10 10 6 0 10 -4 10 -10z m2588 -27 c-10 -2 -26 -2 -35 0 -10 3 -2 5 17 5 19 0 27 -2 18 -5z m9409 1 c-3 -3 -12 -4 -19 -1 -8 3 -5 6 6 6 11 1 17 -2 13 -5z m-12109 -11 c-10 -2 -26 -2 -35 0 -10 3 -2 5 17 5 19 0 27 -2 18 -5z m1999 -25 c-3 -7 -5 -2 -5 12 0 14 2 19 5 13 2 -7 2 -19 0 -25z m10110 16 c-3 -3 -12 -4 -19 -1 -8 3 -5 6 6 6 11 1 17 -2 13 -5z m-12240 -51 c-3 -10 -5 -2 -5 17 0 19 2 27 5 18 2 -10 2 -26 0 -35z m53 17 c0 -16 -3 -30 -7 -30 -5 0 -8 14 -8 30 0 17 3 30 8 30 4 0 7 -13 7 -30z m12483 23 c-7 -2 -21 -2 -30 0 -10 3 -4 5 12 5 17 0 24 -2 18 -5z m-12393 -13 c0 -5 -13 -10 -30 -10 -16 0 -30 5 -30 10 0 6 14 10 30 10 17 0 30 -4 30 -10z m50 0 c0 -5 -4 -10 -10 -10 -5 0 -10 5 -10 10 0 6 5 10 10 10 6 0 10 -4 10 -10z m50 0 c0 -5 -4 -10 -10 -10 -5 0 -10 5 -10 10 0 6 5 10 10 10 6 0 10 -4 10 -10z m2663 3 c-7 -2 -21 -2 -30 0 -10 3 -4 5 12 5 17 0 24 -2 18 -5z m47 -3 c0 -5 -5 -10 -11 -10 -5 0 -7 5 -4 10 3 6 8 10 11 10 2 0 4 -4 4 -10z m45 0 c3 -5 1 -10 -4 -10 -6 0 -11 5 -11 10 0 6 2 10 4 10 3 0 8 -4 11 -10z m9245 0 c0 -5 -4 -10 -10 -10 -5 0 -10 5 -10 10 0 6 5 10 10 10 6 0 10 -4 10 -10z m-9810 -24 c0 -3 -4 -8 -10 -11 -5 -3 -10 -1 -10 4 0 6 5 11 10 11 6 0 10 -2 10 -4z m9807 -2 c-3 -3 -12 -4 -19 -1 -8 3 -5 6 6 6 11 1 17 -2 13 -5z m-12109 -11 c-10 -2 -26 -2 -35 0 -10 3 -2 5 17 5 19 0 27 -2 18 -5z m329 1 c-3 -3 -12 -4 -19 -1 -8 3 -5 6 6 6 11 1 17 -2 13 -5z m2446 -1 c-7 -2 -21 -2 -30 0 -10 3 -4 5 12 5 17 0 24 -2 18 -5z m9630 0 c-7 -2 -21 -2 -30 0 -10 3 -4 5 12 5 17 0 24 -2 18 -5z m-293 -13 c0 -5 -4 -10 -10 -10 -5 0 -10 5 -10 10 0 6 5 10 10 10 6 0 10 -4 10 -10z m-9423 -47 c-3 -10 -5 -2 -5 17 0 19 2 27 5 18 2 -10 2 -26 0 -35z m-87 27 c0 -5 -4 -10 -10 -10 -5 0 -10 5 -10 10 0 6 5 10 10 10 6 0 10 -4 10 -10z m173 3 c-7 -2 -21 -2 -30 0 -10 3 -4 5 12 5 17 0 24 -2 18 -5z m47 -3 c0 -5 -4 -10 -10 -10 -5 0 -10 5 -10 10 0 6 5 10 10 10 6 0 10 -4 10 -10z m50 0 c0 -5 -4 -10 -10 -10 -5 0 -10 5 -10 10 0 6 5 10 10 10 6 0 10 -4 10 -10z m308 3 c-10 -2 -28 -2 -40 0 -13 2 -5 4 17 4 22 1 32 -1 23 -4z m7722 -8 c0 -8 -9 -15 -20 -15 -25 0 -26 17 -2 23 9 3 18 5 20 6 1 0 2 -6 2 -14z m50 0 c0 -8 -7 -15 -15 -15 -8 0 -15 7 -15 15 0 8 7 15 15 15 8 0 15 -7 15 -15z m60 0 c0 -8 -7 -15 -15 -15 -8 0 -15 7 -15 15 0 8 7 15 15 15 8 0 15 -7 15 -15z m-11012 -2 c-10 -2 -26 -2 -35 0 -10 3 -2 5 17 5 19 0 27 -2 18 -5z m62 -3 c0 -5 -4 -10 -10 -10 -5 0 -10 5 -10 10 0 6 5 10 10 10 6 0 10 -4 10 -10z m50 0 c0 -5 -4 -10 -10 -10 -5 0 -10 5 -10 10 0 6 5 10 10 10 6 0 10 -4 10 -10z m1137 4 c-3 -3 -12 -4 -19 -1 -8 3 -5 6 6 6 11 1 17 -2 13 -5z m9593 -3 c0 -5 -7 -11 -15 -15 -9 -3 -15 0 -15 9 0 8 7 15 15 15 8 0 15 -4 15 -9z m230 -1 c0 -5 -7 -10 -15 -10 -8 0 -15 5 -15 10 0 6 7 10 15 10 8 0 15 -4 15 -10z m50 -5 c0 -9 -6 -12 -15 -9 -8 4 -15 10 -15 15 0 5 7 9 15 9 8 0 15 -7 15 -15z m987 9 c-3 -3 -12 -4 -19 -1 -8 3 -5 6 6 6 11 1 17 -2 13 -5z m-9924 -11 c-13 -2 -35 -2 -50 0 -16 2 -5 4 22 4 28 0 40 -2 28 -4z m170 0 c-13 -2 -35 -2 -50 0 -16 2 -5 4 22 4 28 0 40 -2 28 -4z m825 0 c-10 -2 -28 -2 -40 0 -13 2 -5 4 17 4 22 1 32 -1 23 -4z m7602 -8 c0 -8 -7 -15 -15 -15 -8 0 -15 7 -15 15 0 8 7 15 15 15 8 0 15 -7 15 -15z m400 -1 c0 -9 -5 -14 -12 -12 -18 6 -21 28 -4 28 9 0 16 -7 16 -16z m1317 -156 c-2 -35 -3 -9 -3 57 0 66 1 94 3 63 2 -32 2 -86 0 -120z m-12170 156 c-3 -3 -12 -4 -19 -1 -8 3 -5 6 6 6 11 1 17 -2 13 -5z m2453 -4 c0 -5 -11 -10 -25 -10 -14 0 -25 5 -25 10 0 6 11 10 25 10 14 0 25 -4 25 -10z m7940 -4 c0 -8 -7 -16 -15 -20 -10 -4 -15 1 -15 14 0 11 7 20 15 20 8 0 15 -6 15 -14z m520 -6 c0 -13 -5 -18 -15 -14 -8 4 -15 12 -15 20 0 8 7 14 15 14 8 0 15 -9 15 -20z m870 0 c0 -11 -6 -20 -13 -20 -7 0 -13 9 -13 20 0 11 6 20 13 20 7 0 13 -9 13 -20z m-12100 0 c0 -5 -13 -10 -30 -10 -16 0 -30 5 -30 10 0 6 14 10 30 10 17 0 30 -4 30 -10z m1950 6 c0 -3 -4 -8 -10 -11 -5 -3 -10 -1 -10 4 0 6 5 11 10 11 6 0 10 -2 10 -4z m130 -6 c0 -5 -4 -10 -10 -10 -5 0 -10 5 -10 10 0 6 5 10 10 10 6 0 10 -4 10 -10z m8568 -31 c-9 -6 -14 -3 -16 8 -2 8 2 19 10 24 9 6 14 3 16 -8 2 -8 -2 -19 -10 -24z m632 15 c0 -8 -7 -14 -15 -14 -8 0 -15 9 -15 20 0 13 5 18 15 14 8 -4 15 -12 15 -20z m-8690 6 c0 -5 -5 -10 -11 -10 -5 0 -7 5 -4 10 3 6 8 10 11 10 2 0 4 -4 4 -10z m10280 -10 c0 -11 -4 -20 -9 -20 -5 0 -11 9 -14 20 -3 13 0 20 9 20 8 0 14 -9 14 -20z m-2274 -25 c-3 -8 -10 -15 -16 -15 -14 0 -12 37 3 43 15 5 21 -8 13 -28z m742 6 c3 -16 -1 -22 -10 -19 -7 3 -15 15 -16 27 -3 16 1 22 10 19 7 -3 15 -15 16 -27z m-11481 -18 c-3 -10 -5 -4 -5 12 0 17 2 24 5 18 2 -7 2 -21 0 -30z m50 -10 c-3 -10 -5 -2 -5 17 0 19 2 27 5 18 2 -10 2 -26 0 -35z m1266 40 c-7 -2 -21 -2 -30 0 -10 3 -4 5 12 5 17 0 24 -2 18 -5z m1590 0 c-7 -2 -21 -2 -30 0 -10 3 -4 5 12 5 17 0 24 -2 18 -5z m47 -3 c0 -5 -2 -10 -4 -10 -3 0 -8 5 -11 10 -3 6 -1 10 4 10 6 0 11 -4 11 -10z m50 6 c0 -3 -4 -8 -10 -11 -5 -3 -10 -1 -10 4 0 6 5 11 10 11 6 0 10 -2 10 -4z m-2872 -13 c-10 -2 -26 -2 -35 0 -10 3 -2 5 17 5 19 0 27 -2 18 -5z m62 -3 c0 -5 -4 -10 -10 -10 -5 0 -10 5 -10 10 0 6 5 10 10 10 6 0 10 -4 10 -10z m50 0 c0 -5 -4 -10 -10 -10 -5 0 -10 5 -10 10 0 6 5 10 10 10 6 0 10 -4 10 -10z m217 4 c-3 -3 -12 -4 -19 -1 -8 3 -5 6 6 6 11 1 17 -2 13 -5z m2873 -4 c0 -5 -20 -10 -45 -10 -25 0 -45 5 -45 10 0 6 20 10 45 10 25 0 45 -4 45 -10z m1563 3 c-13 -2 -33 -2 -45 0 -13 2 -3 4 22 4 25 0 35 -2 23 -4z m155 0 c-10 -2 -28 -2 -40 0 -13 2 -5 4 17 4 22 1 32 -1 23 -4z m5632 -17 c0 -13 -7 -26 -15 -30 -11 -4 -15 1 -15 18 0 12 3 26 7 29 13 14 23 6 23 -17z m350 -49 c0 -66 -2 -73 -20 -73 -18 0 -20 7 -20 73 0 66 2 73 20 73 18 0 20 -7 20 -73z m50 -2 c0 -62 -2 -73 -15 -69 -11 5 -15 23 -15 75 0 55 3 69 15 69 12 0 15 -15 15 -75z m56 5 c-1 -46 -5 -71 -13 -75 -10 -3 -13 15 -13 70 0 55 3 75 13 75 10 0 13 -19 13 -70z m64 -5 c0 -62 -2 -73 -15 -69 -11 5 -15 23 -15 75 0 55 3 69 15 69 12 0 15 -15 15 -75z m338 42 c3 -21 0 -26 -12 -21 -19 7 -22 58 -3 52 6 -3 13 -17 15 -31z m699 27 c-3 -3 -12 -4 -19 -1 -8 3 -5 6 6 6 11 1 17 -2 13 -5z m-9924 -11 c-13 -2 -35 -2 -50 0 -16 2 -5 4 22 4 28 0 40 -2 28 -4z m170 0 c-13 -2 -35 -2 -50 0 -16 2 -5 4 22 4 28 0 40 -2 28 -4z m8487 -57 c0 -48 -4 -65 -15 -70 -12 -4 -15 6 -15 64 0 56 3 70 15 70 12 0 15 -14 15 -64z m280 -6 c0 -56 -3 -70 -15 -70 -12 0 -15 14 -15 70 0 56 3 70 15 70 12 0 15 -14 15 -70z m1567 38 c-3 -7 -5 -2 -5 12 0 14 2 19 5 13 2 -7 2 -19 0 -25z m-12234 15 c-13 -2 -35 -2 -50 0 -16 2 -5 4 22 4 28 0 40 -2 28 -4z m2320 0 c-7 -2 -21 -2 -30 0 -10 3 -4 5 12 5 17 0 24 -2 18 -5z m7710 -50 c-16 -13 -18 -12 -21 8 -3 14 4 28 15 36 16 13 18 12 21 -8 3 -14 -4 -28 -15 -36z m297 -8 c0 -53 -3 -63 -15 -59 -11 5 -15 21 -15 59 0 47 4 57 28 64 1 1 2 -28 2 -64z m400 0 c0 -38 -4 -55 -15 -59 -12 -4 -15 6 -15 59 0 53 3 63 15 59 11 -4 15 -21 15 -59z m274 59 c10 -4 16 -18 16 -35 0 -27 -2 -29 -20 -19 -12 6 -20 21 -20 35 0 27 1 28 24 19z m656 -4 c0 -5 -4 -10 -10 -10 -5 0 -10 5 -10 10 0 6 5 10 10 10 6 0 10 -4 10 -10z m530 -4 c0 -7 -23 -11 -60 -12 -44 0 -60 3 -60 13 0 10 16 13 60 12 36 -1 60 -6 60 -13z m30 -1 c0 -8 -4 -15 -10 -15 -5 0 -10 7 -10 15 0 8 5 15 10 15 6 0 10 -7 10 -15z m-10673 -27 c-3 -7 -5 -2 -5 12 0 14 2 19 5 13 2 -7 2 -19 0 -25z m93 22 c0 -5 -2 -10 -4 -10 -3 0 -8 5 -11 10 -3 6 -1 10 4 10 6 0 11 -4 11 -10z m510 0 c0 -5 -4 -10 -10 -10 -5 0 -10 5 -10 10 0 6 5 10 10 10 6 0 10 -4 10 -10z m2163 3 c-13 -2 -33 -2 -45 0 -13 2 -3 4 22 4 25 0 35 -2 23 -4z m155 0 c-10 -2 -28 -2 -40 0 -13 2 -5 4 17 4 22 1 32 -1 23 -4z m-4920 -10 c-10 -2 -26 -2 -35 0 -10 3 -2 5 17 5 19 0 27 -2 18 -5z m702 3 c0 -2 -16 -6 -35 -8 -19 -2 -35 0 -35 4 0 4 16 8 35 8 19 0 35 -2 35 -4z m68 -3 c-10 -2 -28 -2 -40 0 -13 2 -5 4 17 4 22 1 32 -1 23 -4z m80 0 c-10 -2 -28 -2 -40 0 -13 2 -5 4 17 4 22 1 32 -1 23 -4z m49 1 c-3 -3 -12 -4 -19 -1 -8 3 -5 6 6 6 11 1 17 -2 13 -5z m2958 -4 c4 -6 -5 -10 -19 -10 -14 0 -26 5 -26 10 0 6 9 10 19 10 11 0 23 -4 26 -10z m472 -232 c-1 -46 -3 -9 -3 82 0 91 2 128 3 83 2 -46 2 -120 0 -165z m233 232 c0 -5 -5 -10 -11 -10 -5 0 -7 5 -4 10 3 6 8 10 11 10 2 0 4 -4 4 -10z m35 0 c3 -5 1 -10 -4 -10 -6 0 -11 5 -11 10 0 6 2 10 4 10 3 0 8 -4 11 -10z m45 0 c0 -5 -5 -10 -11 -10 -5 0 -7 5 -4 10 3 6 8 10 11 10 2 0 4 -4 4 -10z m40 0 c0 -5 -4 -10 -10 -10 -5 0 -10 5 -10 10 0 6 5 10 10 10 6 0 10 -4 10 -10z m6028 -91 c-10 -6 -14 3 -16 38 -2 30 1 49 10 54 10 6 14 -3 16 -38 2 -30 -1 -49 -10 -54z m530 44 c2 -39 0 -50 -13 -50 -12 0 -15 12 -15 55 0 71 24 67 28 -5z m-9991 41 c-3 -3 -12 -4 -19 -1 -8 3 -5 6 6 6 11 1 17 -2 13 -5z m936 -1 c-13 -2 -35 -2 -50 0 -16 2 -5 4 22 4 28 0 40 -2 28 -4z m170 0 c-13 -2 -35 -2 -50 0 -16 2 -5 4 22 4 28 0 40 -2 28 -4z m334 -30 c-3 -10 -5 -4 -5 12 0 17 2 24 5 18 2 -7 2 -21 0 -30z m88 27 c4 -6 -5 -10 -19 -10 -14 0 -26 5 -26 10 0 6 9 10 19 10 11 0 23 -4 26 -10z m45 -6 c0 -8 -5 -12 -10 -9 -6 4 -8 11 -5 16 9 14 15 11 15 -7z m45 7 c3 -5 1 -12 -5 -16 -5 -3 -10 1 -10 9 0 18 6 21 15 7z m7565 -26 c0 -19 -4 -35 -10 -35 -11 0 -14 53 -3 63 11 12 13 8 13 -28z m1090 -6 c0 -18 -4 -28 -10 -24 -5 3 -10 20 -10 36 0 18 4 28 10 24 6 -3 10 -20 10 -36z m587 35 c-3 -3 -12 -4 -19 -1 -8 3 -5 6 6 6 11 1 17 -2 13 -5z m-1437 -49 c0 -33 -4 -45 -15 -45 -11 0 -15 11 -15 38 0 21 3 42 7 45 16 16 23 4 23 -38z m618 2 c2 -28 -1 -37 -12 -37 -12 0 -16 11 -16 41 0 52 24 48 28 -4z m-11278 23 c0 -5 -13 -10 -30 -10 -16 0 -30 5 -30 10 0 6 14 10 30 10 17 0 30 -4 30 -10z m50 1 c0 -6 -4 -13 -10 -16 -5 -3 -10 1 -10 9 0 9 5 16 10 16 6 0 10 -4 10 -9z m50 0 c0 -6 -4 -13 -10 -16 -5 -3 -10 1 -10 9 0 9 5 16 10 16 6 0 10 -4 10 -9z m1073 2 c-7 -2 -21 -2 -30 0 -10 3 -4 5 12 5 17 0 24 -2 18 -5z m3580 0 c-13 -2 -33 -2 -45 0 -13 2 -3 4 22 4 25 0 35 -2 23 -4z m155 0 c-10 -2 -28 -2 -40 0 -13 2 -5 4 17 4 22 1 32 -1 23 -4z m5462 -31 c0 -28 -4 -39 -15 -39 -10 0 -15 11 -15 33 0 27 6 36 28 43 1 1 2 -16 2 -37z m1200 -2 c0 -16 -7 -30 -15 -34 -12 -4 -15 3 -15 34 0 31 3 38 15 34 8 -4 15 -18 15 -34z m530 30 c0 -5 -4 -10 -10 -10 -5 0 -10 5 -10 10 0 6 5 10 10 10 6 0 10 -4 10 -10z m-10533 -6 c-3 -3 -12 -4 -19 -1 -8 3 -5 6 6 6 11 1 17 -2 13 -5z m9033 -27 c0 -23 -5 -34 -15 -34 -10 0 -15 10 -15 28 0 23 6 31 28 38 1 1 2 -14 2 -32z m740 -8 c0 -21 -4 -27 -15 -23 -8 4 -15 19 -15 35 0 21 4 27 15 23 8 -4 15 -19 15 -35z m-9167 24 c-13 -2 -35 -2 -50 0 -16 2 -5 4 22 4 28 0 40 -2 28 -4z m170 0 c-13 -2 -35 -2 -50 0 -16 2 -5 4 22 4 28 0 40 -2 28 -4z m420 0 c-7 -2 -21 -2 -30 0 -10 3 -4 5 12 5 17 0 24 -2 18 -5z m594 1 c-3 -3 -12 -4 -19 -1 -8 3 -5 6 6 6 11 1 17 -2 13 -5z m61 -1 c-10 -2 -26 -2 -35 0 -10 3 -2 5 17 5 19 0 27 -2 18 -5z m49 1 c-3 -3 -12 -4 -19 -1 -8 3 -5 6 6 6 11 1 17 -2 13 -5z m91 -1 c-16 -2 -40 -2 -55 0 -16 2 -3 4 27 4 30 0 43 -2 28 -4z m529 -225 c-1 -46 -3 -11 -3 77 0 88 2 125 3 83 2 -42 2 -114 0 -160z m4673 100 c0 -17 -28 -7 -50 17 l-23 24 18 48 18 47 18 -64 c10 -36 18 -68 19 -72z m-8317 115 c-13 -2 -35 -2 -50 0 -16 2 -5 4 22 4 28 0 40 -2 28 -4z m4310 0 c-13 -2 -33 -2 -45 0 -13 2 -3 4 22 4 25 0 35 -2 23 -4z m155 0 c-10 -2 -28 -2 -40 0 -13 2 -5 4 17 4 22 1 32 -1 23 -4z m5412 -12 c0 -10 -9 -21 -20 -24 -15 -4 -20 0 -20 13 0 17 12 27 33 29 4 1 7 -7 7 -18z m1310 -12 c0 -12 -5 -16 -15 -13 -8 4 -15 15 -15 25 0 12 5 16 15 13 8 -4 15 -15 15 -25z m-11642 14 c-10 -2 -26 -2 -35 0 -10 3 -2 5 17 5 19 0 27 -2 18 -5z m1185 0 c-7 -2 -21 -2 -30 0 -10 3 -4 5 12 5 17 0 24 -2 18 -5z m8255 -32 c16 -51 16 -51 -13 -51 -14 0 -42 -7 -62 -15 -19 -8 -51 -15 -70 -15 -33 0 -35 1 -28 28 9 38 22 49 85 71 75 26 75 26 88 -18z m240 28 c-3 -10 -111 -59 -129 -59 -5 0 -4 11 3 24 7 16 24 28 47 34 50 14 83 14 79 1z m175 -7 c38 -9 69 -22 70 -27 4 -18 -95 -17 -135 1 -38 17 -44 25 -31 37 9 10 20 9 96 -11z m697 0 c0 -10 -7 -19 -15 -19 -27 0 -18 27 13 36 1 1 2 -7 2 -17z m860 -6 c0 -7 -7 -13 -15 -13 -8 0 -15 8 -15 18 0 12 5 16 15 13 8 -4 15 -12 15 -18z m1165 14 c-11 -5 -15 -9 -9 -9 7 -1 14 -9 16 -18 4 -14 -2 -18 -26 -19 -28 -1 -31 2 -31 27 0 27 3 29 35 28 29 0 31 -2 15 -9z m115 -18 c0 -21 -5 -28 -20 -28 -14 0 -20 7 -21 26 -1 24 -2 23 -9 -5 l-8 -30 -1 33 c-1 29 2 32 29 32 26 0 30 -4 30 -28z m-12237 11 c-13 -2 -35 -2 -50 0 -16 2 -5 4 22 4 28 0 40 -2 28 -4z m2317 -1 c0 -4 -9 -8 -20 -9 -11 -1 -20 2 -20 8 0 5 9 9 20 9 11 0 20 -4 20 -8z m50 -2 c0 -5 -5 -10 -11 -10 -5 0 -7 5 -4 10 3 6 8 10 11 10 2 0 4 -4 4 -10z m45 0 c3 -5 1 -10 -4 -10 -6 0 -11 5 -11 10 0 6 2 10 4 10 3 0 8 -4 11 -10z m988 3 c-7 -2 -21 -2 -30 0 -10 3 -4 5 12 5 17 0 24 -2 18 -5z m8254 1 c-3 -3 -12 -4 -19 -1 -8 3 -5 6 6 6 11 1 17 -2 13 -5z m770 0 c-3 -3 -12 -4 -19 -1 -8 3 -5 6 6 6 11 1 17 -2 13 -5z m-12177 -13 c0 -5 -16 -9 -35 -8 -19 1 -35 5 -35 9 0 4 16 8 35 8 19 0 35 -4 35 -9z m80 0 c0 -5 -16 -9 -35 -8 -19 1 -35 5 -35 9 0 4 16 8 35 8 19 0 35 -4 35 -9z m35 -1 c3 -5 -1 -10 -9 -10 -9 0 -16 5 -16 10 0 6 4 10 9 10 6 0 13 -4 16 -10z m45 0 c0 -5 -7 -10 -15 -10 -8 0 -15 5 -15 10 0 6 7 10 15 10 8 0 15 -4 15 -10z m40 0 c0 -5 -7 -10 -15 -10 -8 0 -15 5 -15 10 0 6 7 10 15 10 8 0 15 -4 15 -10z m347 4 c-3 -3 -12 -4 -19 -1 -8 3 -5 6 6 6 11 1 17 -2 13 -5z m2663 2 c0 -3 -4 -8 -10 -11 -5 -3 -10 -1 -10 4 0 6 5 11 10 11 6 0 10 -2 10 -4z m6350 -6 c0 -5 -4 -10 -10 -10 -5 0 -10 5 -10 10 0 6 5 10 10 10 6 0 10 -4 10 -10z m1430 0 c0 -5 -4 -10 -10 -10 -5 0 -10 5 -10 10 0 6 5 10 10 10 6 0 10 -4 10 -10z m-11823 -37 c-3 -10 -5 -4 -5 12 0 17 2 24 5 18 2 -7 2 -21 0 -30z m53 5 c0 -17 -3 -28 -7 -25 -9 10 -10 57 -1 57 4 0 8 -14 8 -32z m1270 22 c0 -5 -11 -10 -25 -10 -14 0 -25 5 -25 10 0 6 11 10 25 10 14 0 25 -4 25 -10z m1410 0 c0 -5 -4 -10 -10 -10 -5 0 -10 5 -10 10 0 6 5 10 10 10 6 0 10 -4 10 -10z m583 3 c-13 -2 -35 -2 -50 0 -16 2 -5 4 22 4 28 0 40 -2 28 -4z m-3185 -10 c-10 -2 -26 -2 -35 0 -10 3 -2 5 17 5 19 0 27 -2 18 -5z m62 -3 c0 -5 -4 -10 -10 -10 -5 0 -10 5 -10 10 0 6 5 10 10 10 6 0 10 -4 10 -10z m50 0 c0 -5 -4 -10 -10 -10 -5 0 -10 5 -10 10 0 6 5 10 10 10 6 0 10 -4 10 -10z m3743 3 c-7 -2 -21 -2 -30 0 -10 3 -4 5 12 5 17 0 24 -2 18 -5z m-1080 -10 c-7 -2 -21 -2 -30 0 -10 3 -4 5 12 5 17 0 24 -2 18 -5z m410 0 c-13 -2 -35 -2 -50 0 -16 2 -5 4 22 4 28 0 40 -2 28 -4z m-2486 -9 c-10 -11 -67 -13 -67 -3 0 5 17 9 37 9 20 0 33 -3 30 -6z m80 0 c-10 -11 -67 -13 -67 -3 0 5 17 9 37 9 20 0 33 -3 30 -6z m80 -1 c-10 -9 -58 -10 -63 -1 -3 4 12 8 32 8 21 0 34 -3 31 -7z m43 3 c0 -11 -19 -15 -25 -6 -3 5 1 10 9 10 9 0 16 -2 16 -4z m2470 -27 c0 -10 -6 -19 -13 -19 -11 0 -15 23 -8 48 3 12 21 -13 21 -29z m70 4 c0 -19 -5 -23 -30 -23 -25 0 -30 4 -30 23 0 20 5 24 30 24 25 0 30 -4 30 -24z m35 7 c-3 -5 -1 -11 4 -14 5 -3 11 2 13 12 4 14 15 18 48 17 37 -1 44 -4 45 -23 2 -21 -2 -22 -65 -22 -63 0 -67 1 -64 23 3 30 3 29 14 22 6 -4 8 -10 5 -15z m1288 13 c-13 -2 -33 -2 -45 0 -13 2 -3 4 22 4 25 0 35 -2 23 -4z m160 0 c-13 -2 -35 -2 -50 0 -16 2 -5 4 22 4 28 0 40 -2 28 -4z m4197 -23 l34 -30 -98 0 c-112 0 -124 14 -35 41 30 9 56 17 59 18 3 0 21 -13 40 -29z m-8667 13 c-13 -2 -35 -2 -50 0 -16 2 -5 4 22 4 28 0 40 -2 28 -4z m2234 -40 c-3 -10 -5 -2 -5 17 0 19 2 27 5 18 2 -10 2 -26 0 -35z m-2689 30 c-10 -2 -26 -2 -35 0 -10 3 -2 5 17 5 19 0 27 -2 18 -5z m2775 0 c-7 -2 -21 -2 -30 0 -10 3 -4 5 12 5 17 0 24 -2 18 -5z m47 -3 c0 -5 -4 -10 -10 -10 -5 0 -10 5 -10 10 0 6 5 10 10 10 6 0 10 -4 10 -10z m50 0 c0 -5 -4 -10 -10 -10 -5 0 -10 5 -10 10 0 6 5 10 10 10 6 0 10 -4 10 -10z m983 3 c-7 -2 -21 -2 -30 0 -10 3 -4 5 12 5 17 0 24 -2 18 -5z m-3400 -10 c-13 -2 -35 -2 -50 0 -16 2 -5 4 22 4 28 0 40 -2 28 -4z m797 3 c0 -3 -4 -8 -10 -11 -5 -3 -10 -1 -10 4 0 6 5 11 10 11 6 0 10 -2 10 -4z m933 -3 c-13 -2 -35 -2 -50 0 -16 2 -5 4 22 4 28 0 40 -2 28 -4z m170 0 c-13 -2 -35 -2 -50 0 -16 2 -5 4 22 4 28 0 40 -2 28 -4z m6561 1 c31 -12 16 -24 -29 -24 -35 0 -43 3 -39 15 6 15 40 20 68 9z m1294 -41 c-4 -52 -28 -56 -28 -4 0 30 4 41 16 41 11 0 14 -9 12 -37z m52 22 c0 -8 -4 -15 -10 -15 -5 0 -10 7 -10 15 0 8 5 15 10 15 6 0 10 -7 10 -15z m1353 -33 c49 -37 56 -47 43 -54 -34 -19 -150 -20 -246 -3 -154 29 -168 29 -219 7 -58 -26 -201 -45 -237 -32 -48 19 -128 12 -178 -15 -41 -22 -59 -25 -150 -25 -92 0 -105 2 -122 21 -33 37 -77 53 -158 58 l-79 6 54 41 54 41 589 0 589 0 60 -45z m77 33 c0 -8 -4 -15 -10 -15 -5 0 -10 7 -10 15 0 8 5 15 10 15 6 0 10 -7 10 -15z m70 -26 c0 -33 -3 -40 -17 -37 -13 2 -19 14 -21 41 -3 32 0 37 17 37 18 0 21 -6 21 -41z m-11750 21 c0 -5 -14 -10 -31 -10 -17 0 -28 4 -24 10 3 6 17 10 31 10 13 0 24 -4 24 -10z m50 0 c0 -5 -4 -10 -10 -10 -5 0 -10 5 -10 10 0 6 5 10 10 10 6 0 10 -4 10 -10z m50 0 c0 -5 -4 -10 -10 -10 -5 0 -10 5 -10 10 0 6 5 10 10 10 6 0 10 -4 10 -10z m3073 3 c-13 -2 -35 -2 -50 0 -16 2 -5 4 22 4 28 0 40 -2 28 -4z m5327 -7 c-80 -30 -83 -30 -68 -7 10 16 23 21 58 20 l45 0 -35 -13z m-5737 -3 c-7 -2 -21 -2 -30 0 -10 3 -4 5 12 5 17 0 24 -2 18 -5z m-1523 -13 c0 -5 -4 -10 -10 -10 -5 0 -10 5 -10 10 0 6 5 10 10 10 6 0 10 -4 10 -10z m3513 3 c-13 -2 -33 -2 -45 0 -13 2 -3 4 22 4 25 0 35 -2 23 -4z m160 0 c-13 -2 -35 -2 -50 0 -16 2 -5 4 22 4 28 0 40 -2 28 -4z m-2323 -13 c0 -5 -4 -10 -10 -10 -5 0 -10 5 -10 10 0 6 5 10 10 10 6 0 10 -4 10 -10z m-2602 -7 c-10 -2 -26 -2 -35 0 -10 3 -2 5 17 5 19 0 27 -2 18 -5z m1185 0 c-7 -2 -21 -2 -30 0 -10 3 -4 5 12 5 17 0 24 -2 18 -5z m1590 0 c-7 -2 -21 -2 -30 0 -10 3 -4 5 12 5 17 0 24 -2 18 -5z m47 -3 c0 -5 -4 -10 -10 -10 -5 0 -10 5 -10 10 0 6 5 10 10 10 6 0 10 -4 10 -10z m50 6 c0 -3 -4 -8 -10 -11 -5 -3 -10 -1 -10 4 0 6 5 11 10 11 6 0 10 -2 10 -4z m5463 -3 c-13 -2 -35 -2 -50 0 -16 2 -5 4 22 4 28 0 40 -2 28 -4z m3617 -13 c0 -5 -4 -10 -10 -10 -5 0 -10 5 -10 10 0 6 5 10 10 10 6 0 10 -4 10 -10z m-11250 -9 c0 -12 -59 -11 -66 1 -3 4 11 8 30 8 20 0 36 -4 36 -9z m35 -1 c-3 -5 -10 -10 -16 -10 -5 0 -9 5 -9 10 0 6 7 10 16 10 8 0 12 -4 9 -10z m125 1 c0 -12 -59 -11 -66 1 -3 4 11 8 30 8 20 0 36 -4 36 -9z m35 -1 c-3 -5 -10 -10 -16 -10 -5 0 -9 5 -9 10 0 6 7 10 16 10 8 0 12 -4 9 -10z m1878 -7 c-7 -2 -21 -2 -30 0 -10 3 -4 5 12 5 17 0 24 -2 18 -5z m1080 0 c-7 -2 -21 -2 -30 0 -10 3 -4 5 12 5 17 0 24 -2 18 -5z m-3855 -10 c-10 -2 -26 -2 -35 0 -10 3 -2 5 17 5 19 0 27 -2 18 -5z m1185 0 c-7 -2 -21 -2 -30 0 -10 3 -4 5 12 5 17 0 24 -2 18 -5z m7684 1 c-3 -3 -12 -4 -19 -1 -8 3 -5 6 6 6 11 1 17 -2 13 -5z m-8167 -14 c0 -5 -16 -10 -35 -10 -19 0 -35 5 -35 10 0 6 16 10 35 10 19 0 35 -4 35 -10z m30 0 c0 -5 -4 -10 -10 -10 -5 0 -10 5 -10 10 0 6 5 10 10 10 6 0 10 -4 10 -10z m130 -1 c0 -5 -16 -9 -35 -9 -19 0 -35 4 -35 9 0 5 16 9 35 9 19 0 35 -4 35 -9z m40 1 c0 -5 -7 -10 -15 -10 -8 0 -15 5 -15 10 0 6 7 10 15 10 8 0 15 -4 15 -10z m2468 -15 c0 -14 -4 -25 -8 -25 -4 0 -10 11 -12 25 -3 16 -1 25 7 25 7 0 13 -11 13 -25z m68 2 c1 -19 -3 -24 -26 -24 -22 0 -27 5 -27 24 0 18 5 23 26 23 20 0 26 -5 27 -23z m150 0 c2 -21 -3 -23 -46 -23 -43 0 -48 2 -46 23 1 20 6 23 46 23 40 0 45 -3 46 -23z m5024 9 c0 -17 -27 -29 -35 -16 -4 6 -3 15 0 20 9 15 35 12 35 -4z m770 -6 c0 -5 -13 -10 -30 -10 -16 0 -30 5 -30 10 0 6 14 10 30 10 17 0 30 -4 30 -10z m470 1 c0 -6 -4 -13 -10 -16 -5 -3 -10 1 -10 9 0 9 5 16 10 16 6 0 10 -4 10 -9z m-9840 -11 c0 -5 -14 -10 -31 -10 -17 0 -28 4 -24 10 3 6 17 10 31 10 13 0 24 -4 24 -10z m2763 3 c-7 -2 -21 -2 -30 0 -10 3 -4 5 12 5 17 0 24 -2 18 -5z m1080 0 c-7 -2 -21 -2 -30 0 -10 3 -4 5 12 5 17 0 24 -2 18 -5z m-3156 -16 c-4 -12 -67 -20 -67 -7 0 12 7 15 40 17 21 2 30 -2 27 -10z m33 -2 c0 -8 -4 -15 -10 -15 -5 0 -10 7 -10 15 0 8 5 15 10 15 6 0 10 -7 10 -15z m130 1 c0 -7 -14 -12 -35 -12 -33 0 -42 6 -30 18 11 11 65 6 65 -6z m38 -4 c2 -7 -3 -12 -12 -12 -9 0 -16 7 -16 16 0 17 22 14 28 -4z m1875 -9 c-7 -2 -21 -2 -30 0 -10 3 -4 5 12 5 17 0 24 -2 18 -5z m597 -13 c0 -5 -4 -10 -10 -10 -5 0 -10 5 -10 10 0 6 5 10 10 10 6 0 10 -4 10 -10z m70 -2 c0 -4 -13 -8 -30 -8 -16 0 -30 4 -30 8 0 5 14 9 30 9 17 0 30 -4 30 -9z m146 -1 c4 -4 -16 -7 -44 -7 -29 0 -52 4 -52 9 0 10 86 8 96 -2z"/>
<path d="M3570 250 c0 -5 5 -10 10 -10 6 0 10 5 10 10 0 6 -4 10 -10 10 -5 0 -10 -4 -10 -10z"/>
<path d="M3680 250 c0 -5 5 -10 10 -10 6 0 10 5 10 10 0 6 -4 10 -10 10 -5 0 -10 -4 -10 -10z"/>
<path d="M3720 250 c0 -5 5 -10 10 -10 6 0 10 5 10 10 0 6 -4 10 -10 10 -5 0 -10 -4 -10 -10z"/>
<path d="M3570 120 c0 -5 5 -10 10 -10 6 0 10 5 10 10 0 6 -4 10 -10 10 -5 0 -10 -4 -10 -10z"/>
<path d="M3680 120 c0 -5 7 -10 16 -10 8 0 12 5 9 10 -3 6 -10 10 -16 10 -5 0 -9 -4 -9 -10z"/>
<path d="M3720 120 c0 -5 5 -10 10 -10 6 0 10 5 10 10 0 6 -4 10 -10 10 -5 0 -10 -4 -10 -10z"/>
<path d="M10893 1214 c-48 -28 -55 -44 -19 -44 14 0 28 -4 31 -10 3 -5 9 -10 13 -10 12 0 82 68 82 79 0 20 -65 11 -107 -15z"/>
<path d="M10420 1185 c0 -3 11 -33 25 -66 l26 -60 -30 -35 c-18 -20 -28 -40 -25 -49 5 -12 10 -13 20 -4 8 6 14 8 14 5 0 -4 7 0 16 8 21 22 57 29 101 21 l36 -6 -76 -77 c-43 -43 -77 -81 -77 -85 0 -18 54 -4 117 30 37 20 88 39 113 42 38 5 46 10 49 31 1 14 8 28 15 32 6 4 53 8 103 8 88 0 94 1 125 29 29 26 31 31 20 55 -15 33 -36 42 -65 28 -37 -17 -57 -22 -57 -13 0 5 11 12 25 15 33 8 33 43 0 58 -27 12 -108 2 -264 -32 l-85 -19 -41 45 c-25 26 -50 44 -63 44 -12 0 -22 -2 -22 -5z"/>
</g>
</svg>